# Blender v2.83.6 OBJ File: ''
# www.blender.org
mtllib Ñ…ÑƒĞ¹.mtl
o Cube_Cube.002
v 0.134747 1.000000 -2.408830
v 0.099858 1.000000 -2.408830
v 0.017445 1.000000 2.415016
v -0.017445 1.000000 2.415016
v 0.017445 -0.762623 -2.090129
v -0.017445 -0.762623 -2.090129
v -0.539798 -0.720153 2.168852
v -0.541578 -0.685471 2.165494
v 0.017445 1.000000 0.003093
v -0.017445 1.000000 0.003093
v 0.017445 -1.000000 0.003093
v -0.017445 -1.000000 0.003093
v -0.065208 1.000000 1.209055
v 0.102092 -1.000000 1.209055
v -0.030319 1.000000 1.209055
v 0.067203 -1.000000 1.209055
v 0.017445 1.000000 -1.202868
v -0.142558 -1.000000 -1.202868
v -0.017445 1.000000 -1.202868
v -0.107669 -1.000000 -1.202868
v -0.157689 1.000000 -0.599888
v -0.122799 -1.000000 -0.599888
v -0.122799 1.000000 -0.599888
v -0.157688 -1.000000 -0.599888
v 0.091867 1.000000 0.606074
v 0.056978 -1.000000 0.606074
v 0.056978 1.000000 0.606074
v 0.091867 -1.000000 0.606074
v -0.017445 1.000000 1.812025
v -0.078914 -0.939396 1.718637
v 0.017445 1.000000 1.812025
v -0.112519 -0.933698 1.711185
v 0.020851 1.000000 -1.805849
v -0.014038 -0.843947 -1.810245
v -0.014038 1.000000 -1.805849
v 0.020851 -0.843947 -1.810245
v -0.058074 -0.000000 2.415016
v -0.092964 -0.000000 2.415016
v 0.076096 0.000000 -2.408830
v 0.041207 0.000000 -2.408830
v -0.017445 -0.000000 0.003093
v 0.017445 0.000000 0.003093
v 0.035887 0.000000 1.209055
v 0.000997 0.000000 1.209055
v -0.080002 -0.000000 -1.202868
v -0.045112 -0.000000 -1.202868
v -0.122799 -0.000000 -0.599888
v -0.157688 -0.000000 -0.599888
v 0.091867 0.000000 0.606074
v 0.056978 0.000000 0.606074
v -0.017445 -0.273458 2.130235
v 0.017445 -0.273458 2.130235
v -0.014038 -0.000000 -1.805849
v 0.020851 0.000000 -1.805849
v -0.273072 -0.423735 2.294787
v 0.046770 -0.431864 -2.213214
v -0.017445 -0.500000 0.003093
v 0.034100 -0.773458 1.527265
v -0.111280 -0.500000 -1.202868
v -0.157688 -0.500000 -0.599888
v 0.056978 -0.500000 0.606074
v -0.173310 -0.667968 2.024473
v -0.014038 -0.500000 -1.805849
v -0.239468 -0.429434 2.302239
v 0.011881 -0.431864 -2.213214
v 0.017445 -0.500000 0.003093
v 0.068990 -0.773458 1.527265
v -0.076390 -0.500000 -1.202868
v -0.122799 -0.500000 -0.599888
v 0.091867 -0.500000 0.606074
v -0.105958 -0.679388 2.039409
v 0.020851 -0.500000 -1.805849
v -0.020315 0.500000 2.415016
v 0.070532 0.500000 -2.408830
v 0.017445 0.500000 0.003093
v 0.002784 0.500000 1.209055
v -0.013834 0.500000 -1.202868
v -0.122799 0.500000 -0.599888
v 0.091867 0.500000 0.606074
v 0.017445 0.500000 1.812025
v 0.020851 0.500000 -1.805849
v -0.055204 0.500000 2.415016
v 0.105422 0.500000 -2.408830
v -0.017445 0.500000 0.003093
v -0.032105 0.500000 1.209055
v -0.048723 0.500000 -1.202868
v -0.157688 0.500000 -0.599888
v 0.056978 0.500000 0.606074
v -0.017445 0.500000 1.812025
v -0.014038 0.500000 -1.805849
v -0.407325 -0.554603 2.230140
v 0.032108 -0.728021 -2.248380
v -0.017445 -0.750000 0.003093
v 0.050651 -0.886729 1.368160
v -0.126919 -0.750000 -1.202868
v -0.157688 -0.750000 -0.599888
v 0.056978 -0.750000 0.606074
v -0.142915 -0.800833 1.867829
v -0.014038 -0.750000 -1.805849
v -0.389633 -0.574793 2.235545
v -0.002782 -0.728021 -2.248380
v 0.017445 -0.750000 0.003093
v 0.085541 -0.886729 1.368160
v -0.092030 -0.750000 -1.202868
v -0.122799 -0.750000 -0.599888
v 0.091867 -0.750000 0.606074
v -0.092436 -0.809392 1.879023
v 0.020851 -0.750000 -1.805849
v 0.077799 1.000000 -2.107339
v -0.015741 -0.949448 -2.217236
v 0.042910 1.000000 -2.107339
v 0.019148 -0.949448 -2.217236
v 0.013584 0.000000 -2.107339
v 0.048474 0.000000 -2.107339
v -0.001079 -0.500000 -2.107339
v 0.033811 -0.500000 -2.107339
v 0.063137 0.500000 -2.107339
v 0.028247 0.500000 -2.107339
v -0.008410 -0.690656 -1.990849
v 0.026479 -0.690656 -1.990849
v -0.148771 -0.214717 2.358627
v 0.026544 -0.250000 -2.408830
v 0.017445 -0.250000 0.003093
v 0.052438 -0.386729 1.368160
v -0.060751 -0.250000 -1.202868
v -0.122799 -0.250000 -0.599888
v 0.091867 -0.250000 0.606074
v -0.044257 -0.476423 2.084822
v 0.020851 -0.250000 -1.805849
v -0.183018 -0.211868 2.354901
v 0.061433 -0.250000 -2.408830
v -0.017445 -0.250000 0.003093
v 0.017549 -0.386729 1.368160
v -0.095641 -0.250000 -1.202868
v -0.157688 -0.250000 -0.599888
v 0.056978 -0.250000 0.606074
v -0.095378 -0.470713 2.077354
v -0.014038 -0.250000 -1.805849
v 0.041142 -0.250000 -2.107339
v 0.006253 -0.250000 -2.107339
v -0.015742 1.000000 -1.504359
v -0.043409 -1.000000 -1.504359
v 0.019148 1.000000 -1.504359
v -0.078298 -1.000000 -1.504359
v -0.012130 -0.000000 -1.504359
v -0.047020 -0.000000 -1.504359
v -0.062659 -0.500000 -1.504359
v -0.027770 -0.500000 -1.504359
v 0.003509 0.500000 -1.504359
v -0.031381 0.500000 -1.504359
v -0.070479 -0.750000 -1.504359
v -0.035589 -0.750000 -1.504359
v -0.019950 -0.250000 -1.504359
v -0.054839 -0.250000 -1.504359
vt 0.375000 0.218749
vt 0.625000 0.218749
vt 0.625000 0.250000
vt 0.375000 0.250000
vt 0.375000 0.468750
vt 0.625000 0.468750
vt 0.625000 0.500000
vt 0.375000 0.500000
vt 0.375000 0.734375
vt 0.625000 0.734375
vt 0.625000 0.750000
vt 0.375000 0.750000
vt 0.375000 0.937500
vt 0.625000 0.937500
vt 0.625000 1.000000
vt 0.375000 1.000000
vt 0.343750 0.734375
vt 0.343750 0.750000
vt 0.812500 0.734375
vt 0.875000 0.734375
vt 0.875000 0.750000
vt 0.812500 0.750000
vt 0.812500 0.593750
vt 0.875000 0.593750
vt 0.875000 0.625000
vt 0.812500 0.625000
vt 0.343750 0.593750
vt 0.375000 0.593750
vt 0.375000 0.625000
vt 0.343750 0.625000
vt 0.625000 0.593750
vt 0.625000 0.625000
vt 0.375000 0.093750
vt 0.625000 0.093750
vt 0.625000 0.125000
vt 0.375000 0.125000
vt 0.375000 0.531250
vt 0.625000 0.531251
vt 0.625000 0.562500
vt 0.375000 0.562500
vt 0.343750 0.531250
vt 0.343750 0.562500
vt 0.812500 0.531250
vt 0.875000 0.531250
vt 0.875000 0.562500
vt 0.812500 0.562500
vt 0.375000 0.156250
vt 0.625000 0.156250
vt 0.625000 0.187500
vt 0.375000 0.187500
vt 0.375000 0.046875
vt 0.625000 0.046875
vt 0.625000 0.062500
vt 0.375000 0.062500
vt 0.812500 0.656250
vt 0.875000 0.656250
vt 0.875000 0.687500
vt 0.812500 0.687500
vt 0.343750 0.656250
vt 0.375000 0.656250
vt 0.375000 0.687500
vt 0.343750 0.687500
vt 0.625000 0.656250
vt 0.625000 0.687500
vt 0.812500 0.500000
vt 0.875000 0.500000
vt 0.343750 0.500000
vt 0.375000 0.015625
vt 0.625000 0.015625
vt 0.625000 0.031250
vt 0.375000 0.031250
vt 0.812500 0.703125
vt 0.875000 0.703125
vt 0.875000 0.718750
vt 0.812500 0.718750
vt 0.343750 0.703125
vt 0.375000 0.703125
vt 0.375000 0.718750
vt 0.343750 0.718750
vt 0.625000 0.703125
vt 0.625000 0.718750
vt 0.187500 0.703125
vt 0.250000 0.703125
vt 0.250000 0.718750
vt 0.187500 0.718750
vt 0.718750 0.703125
vt 0.750000 0.703125
vt 0.750000 0.718750
vt 0.718750 0.718750
vt 0.187500 0.500000
vt 0.250000 0.500000
vt 0.250000 0.531250
vt 0.187500 0.531250
vt 0.718750 0.500000
vt 0.750000 0.500000
vt 0.750000 0.531250
vt 0.718750 0.531250
vt 0.718750 0.562500
vt 0.750000 0.562500
vt 0.750000 0.593750
vt 0.718750 0.593750
vt 0.187500 0.562500
vt 0.250000 0.562500
vt 0.250000 0.593750
vt 0.187500 0.593750
vt 0.718750 0.625000
vt 0.750000 0.625000
vt 0.750000 0.656250
vt 0.718750 0.656250
vt 0.187500 0.625000
vt 0.250000 0.625000
vt 0.250000 0.656250
vt 0.187500 0.656250
vt 0.250000 0.687500
vt 0.187500 0.687500
vt 0.750000 0.687500
vt 0.718750 0.687500
vt 0.718750 0.734375
vt 0.750000 0.734375
vt 0.750000 0.750000
vt 0.718750 0.750000
vt 0.187500 0.734375
vt 0.250000 0.734375
vt 0.250000 0.750000
vt 0.187500 0.750000
vt 0.375000 0.843750
vt 0.625000 0.843750
vt 0.625000 0.875000
vt 0.375000 0.875000
vt 0.375000 0.312500
vt 0.625000 0.312500
vt 0.625000 0.375000
vt 0.375000 0.375000
vt 0.375000 0.781250
vt 0.625000 0.781250
vt 0.625000 0.812500
vt 0.375000 0.812500
vt 0.656250 0.734375
vt 0.687500 0.734375
vt 0.687500 0.750000
vt 0.656250 0.750000
vt 0.656250 0.593750
vt 0.687500 0.593750
vt 0.687500 0.625000
vt 0.656250 0.625000
vt 0.656250 0.531250
vt 0.687500 0.531250
vt 0.687500 0.562500
vt 0.656250 0.562500
vt 0.656250 0.656250
vt 0.687500 0.656250
vt 0.687500 0.687500
vt 0.656250 0.687500
vt 0.656250 0.500000
vt 0.687500 0.500000
vt 0.656250 0.703125
vt 0.687500 0.703125
vt 0.687500 0.718750
vt 0.656250 0.718750
vt 0.281250 0.703125
vt 0.312500 0.703125
vt 0.312500 0.718750
vt 0.281250 0.718750
vt 0.281250 0.500000
vt 0.312500 0.500000
vt 0.312500 0.531250
vt 0.281250 0.531250
vt 0.281250 0.562500
vt 0.312500 0.562500
vt 0.312500 0.593750
vt 0.281250 0.593750
vt 0.281250 0.625000
vt 0.312500 0.625000
vt 0.312500 0.656250
vt 0.281250 0.656250
vt 0.312500 0.687500
vt 0.281250 0.687500
vt 0.281250 0.734375
vt 0.312500 0.734375
vt 0.312500 0.750000
vt 0.281250 0.750000
vt 0.375000 0.406250
vt 0.625000 0.406250
vt 0.625000 0.437500
vt 0.375000 0.437500
vt 0.125000 0.734375
vt 0.125000 0.750000
vt 0.125000 0.593750
vt 0.125000 0.625000
vt 0.125000 0.531250
vt 0.125000 0.562500
vt 0.125000 0.656250
vt 0.125000 0.687500
vt 0.125000 0.500000
vt 0.125000 0.703125
vt 0.125000 0.718750
vt 0.375000 0.000000
vt 0.625000 0.000000
vn 0.0000 1.0000 0.0000
vn -0.4170 -0.0028 0.9089
vn 0.0000 0.5625 -0.8268
vn 0.0000 0.0000 -1.0000
vn 0.9969 -0.0645 -0.0439
vn -0.9858 0.0434 -0.1622
vn -0.9925 -0.0000 0.1225
vn 0.9925 0.0000 -0.1225
vn 0.0000 -1.0000 0.0000
vn -0.0924 -0.9915 0.0914
vn 0.8654 -0.3560 0.3526
vn -0.9981 -0.0330 0.0517
vn -0.9788 0.0306 -0.2023
vn 0.9988 -0.0312 0.0380
vn 0.9740 0.0000 -0.2265
vn -0.9740 -0.0000 0.2265
vn 0.9990 0.0448 0.0016
vn -0.9845 -0.0326 -0.1725
vn -0.9988 0.0377 -0.0313
vn 0.2912 -0.6905 0.6621
vn -0.6712 -0.6720 -0.3131
vn -0.9994 0.0156 -0.0316
vn 0.9817 -0.0247 0.1887
vn 0.0000 -0.8908 -0.4544
vn 0.9964 -0.0156 0.0832
vn -0.9925 0.0155 -0.1214
vn 0.9920 0.0021 0.1259
vn -0.6614 0.4394 -0.6079
vn -0.9963 -0.0444 -0.0741
vn 0.9923 0.0328 0.1194
vn 0.9878 -0.0309 0.1529
vn -0.9929 0.0311 -0.1150
vn -0.9938 0.0936 -0.0596
vn 0.9996 0.0279 0.0075
vn -0.9959 0.0438 -0.0791
vn 0.9924 -0.0437 0.1151
vn -0.0000 0.0000 1.0000
vn 0.0000 0.1179 -0.9930
vn -0.9982 0.0371 -0.0479
vn -0.8387 0.3619 -0.4069
vn -0.9975 0.0312 -0.0638
vn -0.9991 -0.0343 -0.0257
vn -0.2707 0.6791 -0.6823
vn -0.9850 0.0154 -0.1716
vn 0.9891 -0.0155 0.1467
vn 0.6398 -0.3942 0.6597
vn 0.9982 0.0375 0.0461
vn 0.9955 -0.0311 0.0895
vn 0.9759 -0.0331 0.2158
vn 0.9968 -0.0151 0.0788
vn -0.1825 -0.1863 0.9654
vn 0.9858 -0.0434 0.1622
vn 0.9981 0.0330 -0.0517
vn 0.9788 -0.0306 0.2023
vn 0.9845 0.0326 0.1725
vn 0.9988 -0.0377 0.0313
vn 0.9994 -0.0156 0.0316
vn -0.9964 0.0156 -0.0832
vn -0.9920 -0.0021 -0.1259
vn -0.9923 -0.0328 -0.1194
vn -0.9878 0.0309 -0.1529
vn -0.9996 -0.0279 -0.0075
vn -0.9924 0.0437 -0.1151
vn -0.9817 0.0247 -0.1887
vn -0.3023 0.6798 -0.6683
vn -0.9990 -0.0448 -0.0016
vn -0.9988 0.0312 -0.0380
vn -0.8739 0.3118 -0.3730
vn -0.9969 0.0645 0.0439
vn 0.0000 -0.9769 -0.2136
vn 0.9850 -0.0154 0.1716
vn 0.2269 -0.6842 0.6931
vn 0.9991 0.0343 0.0257
vn 0.9975 -0.0312 0.0638
vn 0.8603 -0.3634 0.3577
vn 0.9982 -0.0371 0.0479
vn -0.3044 -0.1349 0.9429
vn 0.9993 -0.0067 0.0374
vn -0.9996 0.0265 -0.0087
vn -0.9932 0.0146 -0.1152
vn 0.9866 -0.0145 0.1624
vn 0.9984 -0.0146 0.0551
vn -0.9993 0.0067 -0.0374
vn 0.9932 -0.0146 0.1152
vn -0.9968 0.0146 -0.0792
vn -0.9866 0.0145 -0.1624
vn 0.9996 -0.0265 0.0087
vn 0.0000 -0.9680 0.2509
vn -0.9984 0.0146 -0.0551
vn 0.9968 -0.0146 0.0792
vn -0.0621 -0.2384 0.9692
vn 0.9959 -0.0438 0.0791
vn 0.9963 -0.0656 0.0555
vn 0.9929 -0.0311 0.1150
vn 0.9963 0.0444 0.0741
vn 0.6896 -0.3989 0.6044
vn 0.9925 -0.0155 0.1214
vn 0.0000 -0.7324 -0.6809
vn -0.9968 0.0151 -0.0788
vn -0.9648 0.0546 -0.2572
vn -0.9955 0.0311 -0.0895
vn -0.9982 -0.0375 -0.0461
vn -0.6474 0.4381 -0.6237
vn -0.9891 0.0155 -0.1467
vn -0.9881 0.0464 -0.1465
vn 0.9915 -0.0465 0.1213
vn 0.9841 -0.0462 0.1715
vn -0.9795 0.0460 -0.1961
vn -0.9954 0.0467 -0.0831
vn 0.9984 -0.0468 0.0315
vn 0.9881 -0.0464 0.1465
vn -0.9841 0.0462 -0.1715
vn -0.9915 0.0465 -0.1213
vn 0.9954 -0.0467 0.0831
vn 0.9795 -0.0460 0.1961
vn -0.9984 0.0468 -0.0315
usemtl None
s off
f 31/1/1 29/2/1 4/3/1 3/4/1
f 100/5/2 91/6/2 8/7/2 7/8/2
f 112/9/3 110/10/3 6/11/3 5/12/3
f 83/13/4 74/14/4 2/15/4 1/16/4
f 120/17/5 112/9/5 5/12/5 92/18/5
f 118/19/6 111/20/6 2/21/6 74/22/6
f 88/23/7 27/24/7 10/25/7 84/26/7
f 106/27/8 28/28/8 11/29/8 102/30/8
f 28/28/9 26/31/9 12/32/9 11/29/9
f 23/33/1 21/34/1 10/35/1 9/36/1
f 30/37/10 32/38/10 16/39/10 14/40/10
f 107/41/11 30/37/11 14/40/11 103/42/11
f 89/43/12 29/44/12 13/45/12 85/46/12
f 25/47/1 27/48/1 13/49/1 15/50/1
f 143/51/1 141/52/1 19/53/1 17/54/1
f 87/55/13 21/56/13 19/57/13 86/58/13
f 105/59/14 22/60/14 20/61/14 104/62/14
f 22/60/9 24/63/9 18/64/9 20/61/9
f 11/29/9 12/32/9 24/63/9 22/60/9
f 102/30/15 11/29/15 22/60/15 105/59/15
f 84/26/16 10/25/16 21/56/16 87/55/16
f 17/54/1 19/53/1 21/34/1 23/33/1
f 9/36/1 10/35/1 27/48/1 25/47/1
f 14/40/9 16/39/9 26/31/9 28/28/9
f 103/42/17 14/40/17 28/28/17 106/27/17
f 85/46/18 13/45/18 27/24/18 88/23/18
f 82/65/19 4/66/19 29/44/19 89/43/19
f 100/67/20 7/8/20 30/37/20 107/41/20
f 7/8/21 8/7/21 32/38/21 30/37/21
f 15/50/1 13/49/1 29/2/1 31/1/1
f 109/68/1 111/69/1 35/70/1 33/71/1
f 150/72/22 141/73/22 35/74/22 90/75/22
f 152/76/23 142/77/23 36/78/23 108/79/23
f 142/77/24 144/80/24 34/81/24 36/78/24
f 149/82/25 145/83/25 54/84/25 81/85/25
f 154/86/26 146/87/26 53/88/26 138/89/26
f 73/90/27 37/91/27 52/92/27 80/93/27
f 130/94/28 38/95/28 51/96/28 137/97/28
f 133/98/29 44/99/29 50/100/29 136/101/29
f 76/102/30 43/103/30 49/104/30 79/105/30
f 132/106/16 41/107/16 48/108/16 135/109/16
f 75/110/15 42/111/15 47/112/15 78/113/15
f 78/113/31 47/112/31 46/114/31 77/115/31
f 135/109/32 48/108/32 45/116/32 134/117/32
f 137/97/33 51/96/33 44/99/33 133/98/33
f 80/93/34 52/92/34 43/103/34 76/102/34
f 79/105/8 49/104/8 42/111/8 75/110/8
f 136/101/7 50/100/7 41/107/7 132/106/7
f 140/118/35 113/119/35 40/120/35 122/121/35
f 117/122/36 114/123/36 39/124/36 83/125/36
f 131/126/4 122/127/4 40/128/4 39/129/4
f 73/130/37 82/131/37 38/132/37 37/133/37
f 92/134/38 101/135/38 65/136/38 56/137/38
f 119/138/39 115/139/39 65/140/39 101/141/39
f 97/142/7 61/143/7 57/144/7 93/145/7
f 98/146/40 62/147/40 58/148/40 94/149/40
f 96/150/41 60/151/41 59/152/41 95/153/41
f 93/145/16 57/144/16 60/151/16 96/150/16
f 94/149/42 58/148/42 61/143/42 97/142/42
f 91/154/43 55/155/43 62/147/43 98/146/43
f 151/156/44 147/157/44 63/158/44 99/159/44
f 153/160/45 148/161/45 72/162/45 129/163/45
f 121/164/46 64/165/46 71/166/46 128/167/46
f 124/168/47 67/169/47 70/170/47 127/171/47
f 123/172/15 66/173/15 69/174/15 126/175/15
f 126/175/48 69/174/48 68/176/48 125/177/48
f 128/167/49 71/166/49 67/169/49 124/168/49
f 127/171/8 70/170/8 66/173/8 123/172/8
f 139/178/50 116/179/50 56/180/50 131/181/50
f 121/182/51 130/183/51 55/184/51 64/185/51
f 3/4/37 4/3/37 82/131/37 73/130/37
f 109/186/52 117/122/52 83/125/52 1/187/52
f 25/188/8 79/105/8 75/110/8 9/189/8
f 31/190/53 80/93/53 76/102/53 15/191/53
f 23/192/54 78/113/54 77/115/54 17/193/54
f 9/189/15 75/110/15 78/113/15 23/192/15
f 15/191/55 76/102/55 79/105/55 25/188/55
f 3/194/56 73/90/56 80/93/56 31/190/56
f 143/195/57 149/82/57 81/85/57 33/196/57
f 146/87/58 150/72/58 90/75/58 53/88/58
f 38/95/59 82/65/59 89/43/59 51/96/59
f 44/99/60 85/46/60 88/23/60 50/100/60
f 41/107/16 84/26/16 87/55/16 48/108/16
f 48/108/61 87/55/61 86/58/61 45/116/61
f 51/96/62 89/43/62 85/46/62 44/99/62
f 50/100/7 88/23/7 84/26/7 41/107/7
f 113/119/63 118/19/63 74/22/63 40/120/63
f 39/129/4 40/128/4 74/14/4 83/13/4
f 144/80/64 151/156/64 99/159/64 34/81/64
f 8/7/65 91/154/65 98/146/65 32/38/65
f 16/39/66 94/149/66 97/142/66 26/31/66
f 12/32/16 93/145/16 96/150/16 24/63/16
f 24/63/67 96/150/67 95/153/67 18/64/67
f 32/38/68 98/146/68 94/149/68 16/39/68
f 26/31/7 97/142/7 93/145/7 12/32/7
f 110/10/69 119/138/69 101/141/69 6/11/69
f 5/12/70 6/11/70 101/135/70 92/134/70
f 148/161/71 152/76/71 108/79/71 72/162/71
f 64/165/72 100/67/72 107/41/72 71/166/72
f 67/169/73 103/42/73 106/27/73 70/170/73
f 66/173/15 102/30/15 105/59/15 69/174/15
f 69/174/74 105/59/74 104/62/74 68/176/74
f 71/166/75 107/41/75 103/42/75 67/169/75
f 70/170/8 106/27/8 102/30/8 66/173/8
f 116/179/76 120/17/76 92/18/76 56/180/76
f 64/185/77 55/184/77 91/6/77 100/5/77
f 72/162/78 108/79/78 120/17/78 116/179/78
f 34/81/79 99/159/79 119/138/79 110/10/79
f 53/88/80 90/75/80 118/19/80 113/119/80
f 33/196/81 81/85/81 117/122/81 109/186/81
f 129/163/82 72/162/82 116/179/82 139/178/82
f 99/159/83 63/158/83 115/139/83 119/138/83
f 81/85/84 54/84/84 114/123/84 117/122/84
f 138/89/85 53/88/85 113/119/85 140/118/85
f 1/197/1 2/198/1 111/69/1 109/68/1
f 90/75/86 35/74/86 111/20/86 118/19/86
f 108/79/87 36/78/87 112/9/87 120/17/87
f 36/78/88 34/81/88 110/10/88 112/9/88
f 63/158/89 138/89/89 140/118/89 115/139/89
f 54/84/90 129/163/90 139/178/90 114/123/90
f 37/133/91 38/132/91 130/183/91 121/182/91
f 114/123/92 139/178/92 131/181/92 39/124/92
f 49/104/8 127/171/8 123/172/8 42/111/8
f 52/92/93 128/167/93 124/168/93 43/103/93
f 47/112/94 126/175/94 125/177/94 46/114/94
f 42/111/15 123/172/15 126/175/15 47/112/15
f 43/103/95 124/168/95 127/171/95 49/104/95
f 37/91/96 121/164/96 128/167/96 52/92/96
f 145/83/97 153/160/97 129/163/97 54/84/97
f 56/137/98 65/136/98 122/127/98 131/126/98
f 115/139/99 140/118/99 122/121/99 65/140/99
f 61/143/7 136/101/7 132/106/7 57/144/7
f 62/147/100 137/97/100 133/98/100 58/148/100
f 60/151/101 135/109/101 134/117/101 59/152/101
f 57/144/16 132/106/16 135/109/16 60/151/16
f 58/148/102 133/98/102 136/101/102 61/143/102
f 55/155/103 130/94/103 137/97/103 62/147/103
f 147/157/104 154/86/104 138/89/104 63/158/104
f 59/152/105 134/117/105 154/86/105 147/157/105
f 46/114/106 125/177/106 153/160/106 145/83/106
f 68/176/107 104/62/107 152/76/107 148/161/107
f 18/64/108 95/153/108 151/156/108 144/80/108
f 45/116/109 86/58/109 150/72/109 146/87/109
f 17/193/110 77/115/110 149/82/110 143/195/110
f 125/177/111 68/176/111 148/161/111 153/160/111
f 95/153/112 59/152/112 147/157/112 151/156/112
f 134/117/113 45/116/113 146/87/113 154/86/113
f 77/115/114 46/114/114 145/83/114 149/82/114
f 20/61/9 18/64/9 144/80/9 142/77/9
f 104/62/115 20/61/115 142/77/115 152/76/115
f 86/58/116 19/57/116 141/73/116 150/72/116
f 33/71/1 35/70/1 141/52/1 143/51/1
